# xmcd CD database file
#
# Track frame offsets:
#	150
#	18012
#	30645
#	41562
#	55402
#	71407
#	83242
#	99270
#	112385
#	138415
#	156165
#	170882
#	184275
#	199500
#
# Disc length: 2827 seconds
#
# Revision: 0
# Processed by: cddbd v1.5.2PL0 Copyright (c) Steve Scherf et al.
# Submitted via: CDex 1.70beta2
#
DISCID=bf0b090e
DTITLE=Various Artist - Piano Love letters Jazz and New Age
DYEAR=2006
DGENRE=New Age
TTITLE0=Maksim - Intermezzo
TTITLE1=Laura Fygi -Let There Be Love
TTITLE2=Ennio Moricone - Love Affair (piano version)
TTITLE3=Sumi Jo - I've Never been In Love Before
TTITLE4=Andre Gagnon - L'amour Reve
TTITLE5=Ray Charles - What Would I Do Without You
TTITLE6=Renee Olstead - A Love That Will Last
TTITLE7=Chie Ayado - L-O-V-E
TTITLE8=Yasuharu Nakanishi - Endless Rain
TTITLE9=YOUngsim Roh
TTITLE10=Chester Tan - Heart and Soul
TTITLE11=Michael Hoppe - Hidden In The Heart
TTITLE12=Bob James - When The Love Is Over
TTITLE13=NINa Simone - Marry Me
EXTD=YEAR: 2006
EXTT0=
EXTT1=
EXTT2=
EXTT3=
EXTT4=
EXTT5=
EXTT6=
EXTT7=
EXTT8=
EXTT9=
EXTT10=
EXTT11=
EXTT12=
EXTT13=
PLAYORDER=
